<svg id="eBzCIajr4Mv1" xmlns="http://www.w3.org/2000/svg" viewBox="0 0 1437 533" shape-rendering="geometricPrecision" text-rendering="geometricPrecision"><path d="M514.404724,248.814941c.669373,4.997849,1.682739,9.610382,1.688965,14.224305.099426,73.997192-.09906,147.995208.181641,221.991455.076965,20.278747-12.044281,36.474609-30.105072,41.621582-4.089478,1.165344-8.545868,1.4505-12.833741,1.452881-130.995239.072692-261.990509.084472-392.985748.038086-26.18401-.009278-43.336632-17.401368-43.344532-43.720429-.022057-73.497345-.021725-146.99469.001114-220.492035.006603-21.251388,10.94841-36.482193,30.660404-42.110123c4.555161-1.300491,9.527207-1.586059,14.307434-1.586227c71.163971-.002457,142.327942.121765,213.491913.215637c1.953522.002579,3.907013.000321,5.923462-.99649-9.881256-1.481064-19.755096-3.013672-29.645264-4.432266-19.540863-2.802811-39.098205-5.491196-58.635116-8.320801-26.647293-3.859467-53.288239-7.764038-79.919937-11.729538-21.725319-3.234955-43.52005-6.109757-65.12117-10.039322-17.296395-3.146515-31.72448-23.258103-29.49133-40.587433c3.594784-27.895714,7.671139-55.732025,11.800717-83.555344c3.64048-24.527927,24.785164-39.248252,52.382477-34.702192c44.99176,7.411417,90.217285,13.40206,135.33966,20.022844c46.768875,6.862366,93.529068,13.783604,140.299271,20.636784c36.066681,5.284821,72.065277,11.144676,108.241333,15.535942c25.71756,3.121735,41.949982,25.763847,37.529877,50.312546-4.745911,26.35791-7.776307,53.021683-12.278656,79.42865-1.104096,6.475738-5.024903,12.471252-7.664307,18.719818c3.07196,5.405289,6.561981,11.546142,10.176605,18.07167M235.945221,168.572525c.241272-.060852.482529-.121704.723801-.182556-.192002-.159821-.384003-.319657-.507645-1.229065-12.000763-27.401276-23.963669-54.819367-36.110718-82.155632-.627121-1.411285-2.722931-2.807068-4.314331-3.054024-15.617416-2.423591-31.26857-4.632583-46.919754-6.834137-6.186706-.870247-12.397568-1.568725-19.373123-2.442589c12.755798,29.053208,25.153534,57.290841,37.793991,86.081307c3.209732.465378,7.488953,1.117874,11.777466,1.702072c18.936264,2.579651,37.875213,5.139618,56.930313,8.114624M256.5,487.024139c72.411377,0,144.822754,0,217.285034,0c0-45.073394,0-88.935882,0-132.600006-132.060913,0-263.747528,0-394.900497,0c0,44.522919,0,88.621369,0,132.601502c59.341598,0,117.978531,0,177.615463-.001496M240.24765,124.2173c6.979401,15.776947,13.958801,31.553879,21.261048,48.060654c22.326507,3.120957,45.742645,6.394226,69.788238,9.755478-12.616699-28.397644-24.839172-56.059387-37.317444-83.605255-.723755-1.597756-3.415497-2.924782-5.375152-3.241768-13.30243-2.15184-26.649689-4.030556-39.991883-5.931374-8.154098-1.161674-16.324997-2.205665-25.27446-3.408142C229.1082,98.91925,234.536316,111.216614,240.24765,124.2173m140.014435,64.925522c14.714722,2.082321,29.429443,4.164627,44.336822,6.274201-.127197-1.074112-.088958-1.429703-.214263-1.712891-12.091217-27.326157-24.162842-54.661194-36.396363-81.923569-.584137-1.301773-2.507721-2.585731-3.97525-2.817947-15.262878-2.414986-30.55484-4.64949-45.850433-6.85302-6.584931-.948646-13.197113-1.708023-20.506714-2.644302c12.838135,29.187446,25.256988,57.421623,37.933136,86.240776c7.353088,1.029953,15.573578,2.181381,24.673065,3.436752M318.252136,261.44397c-19.817993,0-39.636169.045532-59.453705-.052216-2.762817-.013611-4.506607.668793-6.059967,3.173767-13.416366,21.635681-26.997512,43.169159-40.505798,64.747956-.648499,1.035949-1.07457,2.211181-1.856018,3.849365c23.160507,0,45.62146.031921,68.081482-.095551c1.108368-.006286,2.599274-1.154968,3.255554-2.188507c13.73764-21.635345,27.383759-43.328827,41.034027-65.019592.839569-1.334076,1.564728-2.740143,2.514557-4.414948-2.451355,0-4.276977,0-7.010132-.000274m9.247986,71.71936c14.831024-.00003,29.66275.066223,44.492096-.09259c1.661377-.017792,4.056-.835327,4.851837-2.084137c13.423523-21.063812,26.64917-42.253754,39.911835-63.419983c1.206512-1.925446,2.366852-3.879883,3.904571-6.405548-1.99826,0-3.273651,0-4.549041,0-20.496796,0-40.994294.086334-61.489594-.088166-3.273773-.027862-5.010559,1.027863-6.70224,3.753266-13.258026,21.360077-26.690399,42.611908-40.052093,63.907715-.756012,1.204925-1.363098,2.503265-2.401459,4.429474c7.49118,0,14.262665,0,22.034088-.000031m-146.285919-.00235c1.682648-.592834,4.17218-.670532,4.928314-1.854889c13.8788-21.738983,27.553833-43.608123,41.253571-65.461242.666885-1.063782,1.165161-2.233277,1.751098-3.371308-.611389-.298462-.885147-.549164-1.158783-.549011-21.979034.012543-43.958893-.027893-65.935348.225433-1.602509.018464-3.699448,1.844117-4.690369,3.39087-11.397095,17.790069-22.626739,35.687438-33.895737,53.559539-2.803955,4.446991-5.589202,8.905793-8.82315,14.060669c22.456924,0,44.043899,0,66.570404-.000061m279.53006-213.341606c-16.147309-2.326507-32.294617-4.653015-48.474854-6.984268-.076782.896973-.154419,1.090164-.096283,1.224617c12.055817,27.882568,24.11499,55.763672,36.225495,83.622452.272125.626053,1.076995,1.334259,1.722778,1.435882c7.002685,1.102036,14.023254,2.090195,21.396271,3.161316c3.877746-26.684875,7.666107-52.754501,11.517395-79.257156-7.348084-1.058708-14.380951-2.071999-22.290802-3.202843m13.415405,144.820335c.412292-2.734832-.574371-3.789978-3.505981-3.702606-6.824006.203369-13.665345.249665-20.485169-.014496-3.382172-.131012-5.334747.931641-7.145233,3.864899-13.024628,21.101776-26.252136,42.078278-39.402496,63.102509-.936768,1.49765-1.770997,3.059448-2.853669,4.940124c24.715119,0,48.892365,0,73.392914,0c0-22.624969,0-44.921509-.000366-68.19043M138.473663,145.03537c-9.623962-21.729775-19.243416-43.461533-28.873703-65.1885-5.001304-11.283462-5.009689-11.281906-17.454719-12.703117-.30481-.034805-.63234.129402-1.471474.31842-3.529053,25.962761-7.082024,52.101441-10.712341,78.809144c20.87397,2.983474,41.466827,5.926773,62.864898,8.985168-1.581069-3.768356-2.790741-6.651489-4.352661-10.221115M93.503426,261.998657c-5.089341,0-10.178673,0-15.111687,0c0,24.046478,0,47.439667,0,71.162995c3.36293,0,6.35968.192108,9.31002-.094117c1.188759-.115295,2.710709-1.003173,3.345223-2.00531c13.526573-21.363647,26.949371-42.792999,40.38826-64.212158.905777-1.443603,1.77893-2.907715,2.965988-4.85141-13.935982,0-26.917656,0-40.897804,0Z" fill="#019194"/><path d="M1055.267578,378.759338c.820313-32.067474,1.494019-63.678405,2.70166-95.26889.972046-25.431183,2.554322-50.839569,3.943116-76.253845.374145-6.848511,1.751098-8.089707,8.541015-8.049927c5.490601.032166,10.98523.165955,16.468506.443008c4.492065.226975,7.293701,2.796372,7.327148,7.258011.059815,7.960022-.15271,15.936035-.624389,23.88324-1.025269,17.273575-2.196289,34.540009-3.511963,51.793793-.334961,4.392883.890625,6.406372,5.571533,6.301697c8.798584-.196808,17.604858-.056733,27.782837-.056733c0-6.107666-.000244-12.199585.000122-18.291504.000977-20.643997.016602-41.288024-.00415-61.932006-.007935-7.978882,1.677856-9.843613,9.498169-9.71196c4.486328.075531,8.963501.588379,13.449951.787781c5.281006.234695,7.394043,3.422744,7.387085,8.175888-.02063,14.155563-.292603,28.310653-.334473,42.466308-.0625,21.141968.20813,42.287171-.069458,63.42569-.308105,23.465485-.884888,46.931854-1.748901,70.382965-.271118,7.360962-1.942017,8.394073-9.214844,9.040649-2.982178.265107-5.970581.651398-8.956055.650147-8.18042-.003418-11.2229-2.951355-11.289428-11.111389-.13733-16.826233-.123413-33.653717-.191529-50.480591-.022339-5.496552-.069946-10.993561-.186157-16.488678-.030518-1.442993-.359497-2.879669-.552978-4.329987-10.53418,0-20.64148,0-31.413697,0c0,4.495423.052246,8.778687-.009033,13.060334-.250244,17.480713-.159302,34.977234-.918335,52.436493-.686645,15.791961-4.728027,18.693664-20.506958,16.610961-.989868-.130676-1.981934-.244628-2.973144-.364196-7.558228-.911835-9.42212-2.858155-9.944336-10.419709-.080323-1.161712-.093384-2.328003-.221314-3.95755Z" fill="#384946"/><path d="M803.370361,232.207947c.624695-10.272278,1.113404-20.075211,1.79419-29.864777.445984-6.414245,2.462707-8.526398,8.79541-8.101135c14.431946.969177,28.917053,1.767914,43.230347,3.731003c18.583557,2.548797,33.406189,17.696167,36.585144,36.135544c3.947937,22.899963,5.217712,46.109344,3.857544,69.16278-1.210877,20.522766-4.922242,40.935334-8.202881,61.288117-3.301514,20.482849-11.739624,28.351196-32.721253,29.471771-13.712524.73233-27.581115-.019257-41.289428-1.176239-8.40149-.709106-10.290833-3.686127-10.403321-12.370117-.637817-49.266388-1.147094-98.534424-1.645752-148.276947m63.127503,80.73938c-.331482-15.635071-.119873-31.308014-1.205567-46.890534-.6156-8.835296-2.590759-17.771774-5.334533-26.213897-3.531861-10.867203-15.027893-15.935837-24.930054-11.993653-4.850769,47.467163-6.904175,95.091522-3.737976,142.767365c15.24884,1.705291,29.0224-7.824005,31.622375-22.512787c1.993714-11.263825,2.431824-22.802979,3.585755-35.156494Z" fill="#384946"/><path d="M641.704834,286.267395c3.716858,16.213196,7.337952,32.011932,10.959045,47.810699.707764.042054,1.415589.084076,2.123352.12613c2.390137-9.934815,5.460389-19.762482,7.044922-29.824158c5.096924-32.363983,9.611939-64.819321,14.451355-97.224472.556946-3.729782,1.743592-7.365509,2.44336-10.243027c9.637695,0,18.609985-.145538,27.57434.057678c4.928528.111725,6.29358,2.20105,5.46991,8.373764-1.56134,11.70134-3.148071,23.40738-5.12091,35.044205-6.11316,36.059937-12.323792,72.103912-18.684144,108.121002-2.514465,14.239075-5.524597,28.390564-8.30487,42.582733-.725647,3.704407-2.614746,6.039429-6.728272,5.921265-11.302734-.324646-22.605224-.674835-33.910217-.890198-2.767517-.052734-4.114136-1.123291-4.818054-3.8432-11.162659-43.129731-21.99054-86.352295-28.753906-130.424408-2.670716-17.403519-3.7547-35.061722-5.203308-52.633454-.343018-4.161026.755249-8.440872,1.217529-12.928421c8.913879,1.056534,17.000366,1.865082,25.01947,3.108673c1.384216.214676,3.392151,2.156052,3.568909,3.502442c1.471252,11.204956,2.290283,22.498321,3.867492,33.685898c2.319825,16.455063,5.102601,32.844848,7.783997,49.676849Z" fill="#384946"/><path d="M984.859009,194.932663c4.452637,1.577454,8.496887,3.082596,12.541076,4.587769c10.41919,3.877944,16.070435,12.570663,19.808899,21.99179c3.879151,9.77533,6.316651,20.210129,8.485596,30.545182c1.384522,6.597473-2.739441,10.717346-9.453674,10.201324-5.767212-.443237-11.458374-1.843475-17.192383-2.763031-3.489075-.55954-4.882202-2.439606-5.074158-6.050308-.326416-6.13942-1.202942-12.250702-1.88446-18.369782-.504334-4.528625-2.650208-7.754486-7.203125-9.176986-4.764343-1.488526-9.101258-1.36763-12.983826,2.320877-6.627441,6.296264-8.246033,14.682296-9.538574,23.068817-4.868469,31.589126-5.313416,63.283249-1.318359,94.991501.506408,4.019653,2.215332,7.966247,3.836547,11.7453c1.698365,3.959076,4.441956,7.306824,9.235169,7.301971c4.847412-.004913,7.714783-3.448852,8.991089-7.482208c2.639038-8.339691,5.295227-16.777679,6.691162-25.378631c1.472656-9.073853,1.732666-10.128693,10.915344-10.439331c4.822083-.163086,9.654358-.004914,14.481812-.03476c3.872009-.023926,6.218139,1.846374,5.89093,5.718719-.934876,11.061249-1.153137,22.317811-3.502503,33.09433-3.879455,17.794831-16.510071,27.808625-33.409607,32.99231-20.222534,6.203033-37.822204-2.389557-45.155944-22.401215-4.887818-13.337433-7.848206-27.089477-8.441651-41.38678-.910217-21.929595-2.934692-43.834198-3.156006-65.762847-.125-12.382554,1.656739-24.931061,3.910706-37.15947c4.297912-23.317703,29.260437-38.090652,53.52594-32.154541Z" fill="#384946"/><path d="M1247.152344,330.00235c.28601-39.314209.560302-78.128296.861572-116.942185.019409-2.494629.141113-4.998611.397827-7.479385.814209-7.871841,2.086914-9.480301,8.061646-10.514679c7.992187-1.383667,14.155883.845734,16.716552,6.636948c1.163575,2.631378,1.758057,5.747528,1.733399,8.636245-.378052,44.139588-.915894,88.277771-1.378052,132.416657-.088867,8.479706-.012817,16.961121-.012817,26.242889c2.383667,0,3.956299-.00711,5.52893.00116c10.331055.05423,20.667237-.066711,30.9917.225952c7.940551.225098,10.526733,2.699005,10.902587,9.367767.530274,9.407044-1.94519,13.83194-9.641235,14.625458-19.081909,1.967377-38.225952,2.484741-57.193603-1.175506-7.938721-1.532044-9.355469-3.510376-9.077393-11.646057.568604-16.636231,1.387451-33.263916,2.108887-50.395264Z" fill="#384946"/><path d="M1414.382568,393.672028c-16.876709-.1474-33.318603-.323151-49.757812-.63678-2.29541-.043762-4.62085-.604492-6.858032-1.203705-6.20398-1.661774-7.883179-3.792053-7.744141-10.309204.773682-36.26297,1.716309-72.522522,2.407959-108.786957.384033-20.137756.38916-40.282715.57666-60.424316.015503-1.664032.072876-3.330475.189209-4.990296.735352-10.499954,3.299072-12.864135,13.49292-12.48761c8.324951.307465,13.366455,5.512665,13.283081,14.21875-.427856,44.603897-.964844,89.206726-1.427368,133.810303-.087769,8.466889-.012573,16.935486-.012573,26.136658c4.438842,0,8.024536-.058808,11.607666.011413c9.477417.185639,18.959839.288361,28.427856.704804c4.767334.209686,6.874756,3.352508,7.33313,7.928314c1.018311,10.166443-1.707886,14.162018-11.518555,16.028626Z" fill="#384946"/><path d="M773.531677,360.158325c.110596,5.804321.367005,11.127777.300537,16.447174-.124389,9.941376-6.225952,15.756378-16.086486,15.55716-.664917-.013398-1.339051-.002045-1.992066-.106964-15.640076-2.512635-14.880676-3.075959-14.906494-16.158509-.048828-24.807831-.095398-49.61618.006653-74.423675.124817-30.353272.365539-60.706269.643005-91.058579.065796-7.200821,1.134705-8.328888,8.184448-9.29306c4.276062-.584824,8.588807-.928192,12.894226-1.262863c4.04889-.314713,6.351258,1.662094,6.590333,5.709945.509521,8.62764,1.099731,17.257035,1.317321,25.894272c1.076905,42.735962,2.043213,85.474671,3.048523,128.695099Z" fill="#384946"/><path d="M1214.840088,328.015625c.333252,15.959839.788574,31.420471.962524,46.884308.145874,12.969665-7.616577,19.289917-20.327026,16.892395-12.197632-2.30072-12.638062-2.820526-12.640869-15.183289-.005493-24.805175-.08252-49.610717.019043-74.415466.125122-30.518494.356079-61.036804.647094-91.554184.072022-7.551178,1.096558-8.57016,8.451294-9.553223c4.113526-.54985,8.257935-.88591,12.395508-1.233978c4.30542-.362183,6.638184,1.757111,6.873047,5.998245.496338,8.961747,1.040894,17.925431,1.280762,26.895935.844726,31.588746,1.568847,63.180695,2.338623,95.269257Z" fill="#384946"/><path d="M256,487.024902c-59.136932.000733-117.773865.000733-177.115463.000733c0-43.980133,0-88.078583,0-132.601502c131.152969,0,262.839584,0,394.900497,0c0,43.664124,0,87.526612,0,132.600006-72.46228,0-144.873657,0-217.785034.000763Z" fill="#fff"/><path d="M240.106033,123.865646c-5.569717-12.649032-10.997833-24.946396-16.768036-38.018753c8.949463,1.202477,17.120362,2.246468,25.27446,3.408142c13.342194,1.900818,26.689453,3.779534,39.991883,5.931374c1.959655.316986,4.651397,1.644012,5.375152,3.241768c12.478272,27.545868,24.700745,55.207611,37.317444,83.605255-24.045593-3.361252-47.461731-6.634521-69.788238-9.755478-7.302247-16.506775-14.281647-32.283707-21.402665-48.412308Z" fill="#fdfefe"/><path d="M235.828094,168.164612c-18.937973-2.567093-37.876922-5.12706-56.813186-7.706711-4.288513-.584198-8.567734-1.236694-11.777466-1.702072-12.640457-28.790466-25.038193-57.028099-37.793991-86.081307c6.975555.873864,13.186417,1.572342,19.373123,2.442589c15.651184,2.201554,31.302338,4.410546,46.919754,6.834137c1.5914.246956,3.68721,1.642739,4.314331,3.054024c12.147049,27.336265,24.109955,54.754356,36.01059,82.594246-.100144.438614-.233155.565094-.233155.565094Z" fill="#fdfefe"/><path d="M379.822571,189.090851c-8.659973-1.2034-16.880463-2.354828-24.233551-3.384781-12.676148-28.819153-25.095001-57.05333-37.933136-86.240776c7.309601.936279,13.921783,1.695656,20.506714,2.644302c15.295593,2.20353,30.587555,4.438034,45.850433,6.85302c1.467529.232216,3.391113,1.516174,3.97525,2.817947c12.233521,27.262375,24.305146,54.597412,36.396363,81.923569.125305.283188.087066.638779.214263,1.712891-14.907379-2.109574-29.6221-4.19188-44.776336-6.326172Z" fill="#fdfefe"/><path d="M318.705902,261.444092c2.279389.000152,4.105011.000152,6.556366.000152-.949829,1.674805-1.674988,3.080872-2.514557,4.414948-13.650268,21.690765-27.296387,43.384247-41.034027,65.019592-.65628,1.033539-2.147186,2.182221-3.255554,2.188507-22.460022.127472-44.920975.095551-68.081482.095551.781448-1.638184,1.207519-2.813416,1.856018-3.849365c13.508286-21.578797,27.089432-43.112275,40.505798-64.747956c1.55336-2.504974,3.29715-3.187378,6.059967-3.173767c19.817536.097748,39.635712.052216,59.907471.052338Z" fill="#fcfefe"/><path d="M327.000153,333.16333c-7.271454.000031-14.042939.000031-21.534119.000031c1.038361-1.926209,1.645447-3.224549,2.401459-4.429474c13.361694-21.295807,26.794067-42.547638,40.052093-63.907715c1.691681-2.725403,3.428467-3.781128,6.70224-3.753266c20.4953.1745,40.992798.088166,61.489594.088166c1.27539,0,2.550781,0,4.549041,0-1.537719,2.525665-2.698059,4.480102-3.904571,6.405548-13.262665,21.166229-26.488312,42.356171-39.911835,63.419983-.795837,1.24881-3.19046,2.066345-4.851837,2.084137-14.829346.158813-29.661072.09256-44.992065.09259Z" fill="#fdfefe"/><path d="M180.744431,333.161011c-22.056733.00003-43.643708.00003-66.100632.00003c3.233948-5.154876,6.019195-9.613678,8.82315-14.060669c11.268998-17.872101,22.498642-35.76947,33.895737-53.559539.990921-1.546753,3.08786-3.372406,4.690369-3.39087c21.976455-.253326,43.956314-.21289,65.935348-.225433.273636-.000153.547394.250549,1.158783.549011-.585937,1.138031-1.084213,2.307526-1.751098,3.371308-13.699738,21.853119-27.374771,43.722259-41.253571,65.461242-.756134,1.184357-3.245666,1.262055-5.398086,1.85492Z" fill="#fefeff"/><path d="M461.18277,119.878151c7.471344,1.072067,14.504211,2.085358,21.852295,3.144066-3.851288,26.502655-7.639649,52.572281-11.517395,79.257156-7.373017-1.071121-14.393586-2.05928-21.396271-3.161316-.645783-.101623-1.450653-.809829-1.722778-1.435882-12.110505-27.85878-24.169678-55.739884-36.225495-83.622452-.058136-.134453.019501-.327644.096283-1.224617c16.180237,2.331253,32.327545,4.657761,48.913361,7.043045Z" fill="#fdfefe"/><path d="M474.159851,265.125885c.000183,22.782745.000183,45.079285.000183,67.704254-24.500549,0-48.677795,0-73.392914,0c1.082672-1.880676,1.916901-3.442474,2.853669-4.940124c13.15036-21.024231,26.377868-42.000733,39.402496-63.102509c1.810486-2.933258,3.763061-3.995911,7.145233-3.864899c6.819824.264161,13.661163.217865,20.485169.014496c2.93161-.087372,3.918273.967774,3.506164,4.188782Z" fill="#feffff"/><path d="M138.64978,145.378616c1.385803,3.22638,2.595475,6.109513,4.176544,9.877869-21.398071-3.058395-41.990928-6.001694-62.864898-8.985168c3.630317-26.707703,7.183288-52.846383,10.712341-78.809144.839134-.189018,1.166664-.353225,1.471474-.31842c12.44503,1.421211,12.453415,1.419655,17.454719,12.703117c9.630287,21.726967,19.249741,43.458725,29.04982,65.531746Z" fill="#fdfefe"/><path d="M94.002655,261.998657c13.480919,0,26.462593,0,40.398575,0-1.187058,1.943695-2.060211,3.407807-2.965988,4.85141-13.438889,21.419159-26.861687,42.848511-40.38826,64.212158-.634514,1.002137-2.156464,1.890015-3.345223,2.00531-2.95034.286225-5.94709.094117-9.31002.094117c0-23.723328,0-47.116517,0-71.162995c4.933014,0,10.022346,0,15.610916,0Z" fill="#fdfefe"/><path d="M236.027069,167.974304c.25795.096008.449951.255844.641953.415665-.241272.060852-.482529.121704-.782364-.021408-.058564-.203949.074447-.330429.140411-.394257Z" fill="#fdfefe"/></svg>
